<?xml version="1.0" encoding="UTF-8"?>
<svg version="1.1" xmlns="http://www.w3.org/2000/svg" width="200" height="100">
<path d="M0 0 C0.71929687 0.27328125 1.43859375 0.5465625 2.1796875 0.828125 C5.61842902 2.16937688 6.89166444 2.83749666 9 6 C8.67781494 6.49999512 8.35562988 6.99999023 8.02368164 7.51513672 C6.62856761 10.90160717 6.66343615 14.15072632 6.62109375 17.7578125 C6.60409927 18.50207489 6.5871048 19.24633728 6.56959534 20.01315308 C6.51659802 22.38368322 6.47621975 24.75419706 6.4375 27.125 C6.39355455 29.50285684 6.34686641 31.88057938 6.29469299 34.25827026 C6.26276515 35.73613367 6.23586583 37.2141159 6.21446228 38.69216919 C6.11173191 43.77653617 6.11173191 43.77653617 5 46 C4.95024095 48.09706761 4.96382046 50.19577223 5.0078125 52.29296875 C5.02457031 53.56333984 5.04132812 54.83371094 5.05859375 56.14257812 C5.09949253 58.82014954 5.15450267 61.49652084 5.21484375 64.17382812 C5.35158641 76.48688322 5.35158641 76.48688322 2 82 C0 83.375 0 83.375 -2 84 C-5.11332248 84.66868314 -5.11332248 84.66868314 -6.1875 87.0625 C-6.455625 87.701875 -6.72375 88.34125 -7 89 C-7.99 89 -8.98 89 -10 89 C-10.2475 89.639375 -10.495 90.27875 -10.75 90.9375 C-12 93 -12 93 -14.125 93.75 C-14.74375 93.8325 -15.3625 93.915 -16 94 C-16 93.01 -16 92.02 -16 91 C-16.33 91.99 -16.66 92.98 -17 94 C-19.875 93.75 -19.875 93.75 -23 93 C-24.25 91.1875 -24.25 91.1875 -25 89 C-25.79996657 86.81601365 -25.79996657 86.81601365 -27 85 C-28.92638012 84.24756445 -28.92638012 84.24756445 -31 84 C-31.99 83.67 -32.98 83.34 -34 83 C-33.67 81.68 -33.34 80.36 -33 79 C-34.485 79.495 -34.485 79.495 -36 80 C-38.61027526 73.11092059 -38.17724442 66.3458224 -38.0625 59.0625 C-38.0392141 56.29950492 -38.02663324 53.53650614 -38.015625 50.7734375 C-38.01230667 50.06235336 -38.00898834 49.35126923 -38.00556946 48.61863708 C-37.97994193 41.18473088 -38.07375156 33.75545752 -38.26144409 26.32394409 C-38.29541816 24.90229265 -38.32386125 23.48049803 -38.34671021 22.05862427 C-38.37959117 20.07395042 -38.43343214 18.089657 -38.48828125 16.10546875 C-38.51446533 14.97262451 -38.54064941 13.83978027 -38.56762695 12.67260742 C-38.71031006 11.79064697 -38.85299316 10.90868652 -39 10 C-39.99 9.34 -40.98 8.68 -42 8 C-41.67 7.34 -41.34 6.68 -41 6 C-40.75636719 5.33097656 -40.51273438 4.66195313 -40.26171875 3.97265625 C-39 2 -39 2 -36.64453125 1.05859375 C-35.24267578 0.75115234 -35.24267578 0.75115234 -33.8125 0.4375 C-30.37931661 -0.37397971 -27.65056339 -1.1655226 -24.4375 -2.6875 C-15.70159068 -6.02302901 -8.28040221 -3.49448167 0 0 Z M-36 12 C-36 21.57 -36 31.14 -36 41 C-35.67 41 -35.34 41 -35 41 C-35 31.43 -35 21.86 -35 12 C-35.33 12 -35.66 12 -36 12 Z M3 12 C3 22.23 3 32.46 3 43 C3.33 43 3.66 43 4 43 C4 32.77 4 22.54 4 12 C3.67 12 3.34 12 3 12 Z M-8 16 C-8.33 16.66 -8.66 17.32 -9 18 C-8.01 17.67 -7.02 17.34 -6 17 C-6.66 16.67 -7.32 16.34 -8 16 Z M-23 18 C-22.67 18.66 -22.34 19.32 -22 20 C-21.34 19.67 -20.68 19.34 -20 19 C-20.99 18.67 -21.98 18.34 -23 18 Z M-22 28 C-22.99 29.485 -22.99 29.485 -24 31 C-22.68 30.34 -21.36 29.68 -20 29 C-20.66 28.67 -21.32 28.34 -22 28 Z M-8 32 C-8 39.26 -8 46.52 -8 54 C-7.67 54 -7.34 54 -7 54 C-7 46.74 -7 39.48 -7 32 C-7.33 32 -7.66 32 -8 32 Z M-6 36 C-6 41.28 -6 46.56 -6 52 C-5.67 52 -5.34 52 -5 52 C-5 46.72 -5 41.44 -5 36 C-5.33 36 -5.66 36 -6 36 Z M-2 37 C-1 39 -1 39 -1 39 Z M0 40 C1 42 1 42 1 42 Z M-35 42 C-34 44 -34 44 -34 44 Z M1 42 C2 44 2 44 2 44 Z M-36 44 C-36 45.65 -36 47.3 -36 49 C-35.67 49 -35.34 49 -35 49 C-35 47.35 -35 45.7 -35 44 C-35.33 44 -35.66 44 -36 44 Z M2 44 C3 47 3 47 3 47 Z M-25 47 C-25 48.65 -25 50.3 -25 52 C-24.67 52 -24.34 52 -24 52 C-24 50.35 -24 48.7 -24 47 C-24.33 47 -24.66 47 -25 47 Z M3 47 C3 55.25 3 63.5 3 72 C3.33 72 3.66 72 4 72 C4 63.75 4 55.5 4 47 C3.67 47 3.34 47 3 47 Z M-37 49 C-37 55.93 -37 62.86 -37 70 C-36.67 70 -36.34 70 -36 70 C-36 63.07 -36 56.14 -36 49 C-36.33 49 -36.66 49 -37 49 Z M-28 49 C-28 50.65 -28 52.3 -28 54 C-27.67 54 -27.34 54 -27 54 C-27 52.35 -27 50.7 -27 49 C-27.33 49 -27.66 49 -28 49 Z M-26 65 C-25.67 65.66 -25.34 66.32 -25 67 C-22.69 67 -20.38 67 -18 67 C-18 66.34 -18 65.68 -18 65 C-20.64 65 -23.28 65 -26 65 Z M-8 65 C-8 72.26 -8 79.52 -8 87 C-7.67 87 -7.34 87 -7 87 C-7 79.74 -7 72.48 -7 65 C-7.33 65 -7.66 65 -8 65 Z M-6 67 C-6 72.28 -6 77.56 -6 83 C-5.67 83 -5.34 83 -5 83 C-5 77.72 -5 72.44 -5 67 C-5.33 67 -5.66 67 -6 67 Z M-36 70 C-36 71.65 -36 73.3 -36 75 C-35.67 75 -35.34 75 -35 75 C-35 73.35 -35 71.7 -35 70 C-35.33 70 -35.66 70 -36 70 Z M2 72 C3 76 3 76 3 76 Z M-35 75 C-34 77 -34 77 -34 77 Z M1 76 C2 78 2 78 2 78 Z " fill="#F65554" transform="translate(43,4)"/>
<path d="M0 0 C7.89315068 1.10136986 7.89315068 1.10136986 11 3 C12.1875 6.3125 12.1875 6.3125 13 10 C13.64199649 11.67632417 14.29894157 13.34750513 15 15 C15.433125 13.865625 15.86625 12.73125 16.3125 11.5625 C16.869375 10.386875 17.42625 9.21125 18 8 C19.485 7.505 19.485 7.505 21 7 C21.66 6.34 22.32 5.68 23 5 C26.2578125 4.8046875 26.2578125 4.8046875 30.125 4.875 C32.04699219 4.90207031 32.04699219 4.90207031 34.0078125 4.9296875 C35.48894531 4.96449219 35.48894531 4.96449219 37 5 C37 9.29 37 13.58 37 18 C35.515 18.495 35.515 18.495 34 19 C34.66 19.33 35.32 19.66 36 20 C38.91321693 22.68015957 39.95124839 24.08505704 40.16796875 28.15234375 C40.17441406 29.40144531 40.18085938 30.65054688 40.1875 31.9375 C40.20167969 33.18402344 40.21585937 34.43054687 40.23046875 35.71484375 C40 39 40 39 38 42 C37.01 42 36.02 42 35 42 C34.34 43.32 33.68 44.64 33 46 C28.71 46 24.42 46 20 46 C19.97292861 43.75006641 19.95357171 41.50003905 19.9375 39.25 C19.92589844 37.99703125 19.91429687 36.7440625 19.90234375 35.453125 C19.97978973 32.71463499 20.17219185 30.58119707 21 28 C20.34 27.67 19.68 27.34 19 27 C18.34 28.98 17.68 30.96 17 33 C16.34 33 15.68 33 15 33 C14.67 34.98 14.34 36.96 14 39 C13.01 38.67 12.02 38.34 11 38 C10.505 38.99 10.505 38.99 10 40 C10.89363605 42.60931266 10.89363605 42.60931266 12 45 C11.01 45.66 10.02 46.32 9 47 C7.67518454 49.39529669 7.67518454 49.39529669 7 52 C7.33 52.99 7.66 53.98 8 55 C8.08178114 56.70016844 8.10749501 58.40336297 8.09765625 60.10546875 C8.09443359 61.08837891 8.09121094 62.07128906 8.08789062 63.08398438 C8.07532227 64.62022461 8.07532227 64.62022461 8.0625 66.1875 C8.05798828 67.22326172 8.05347656 68.25902344 8.04882812 69.32617188 C8.03704026 71.8841392 8.01910482 74.44207686 8 77 C3.38 77 -1.24 77 -6 77 C-5.95359375 74.80859375 -5.9071875 72.6171875 -5.859375 70.359375 C-5.82815866 68.2313061 -5.80388299 66.10326293 -5.78027344 63.97509766 C-5.76018699 62.4987441 -5.73291199 61.02246981 -5.69824219 59.54638672 C-5.64958816 57.42135038 -5.62700327 55.29736766 -5.609375 53.171875 C-5.58842773 51.8940918 -5.56748047 50.61630859 -5.54589844 49.29980469 C-6.07171905 45.47884158 -7.01821225 44.34209626 -10 42 C-10.495 42.99 -10.495 42.99 -11 44 C-14.63 44 -18.26 44 -22 44 C-22.495 41.525 -22.495 41.525 -23 39 C-24.74271938 41.297221 -26.39911152 43.59866729 -28 46 C-31.0390625 46.29296875 -31.0390625 46.29296875 -34.625 46.1875 C-35.81351563 46.16042969 -37.00203125 46.13335937 -38.2265625 46.10546875 C-39.14179687 46.07066406 -40.05703125 46.03585938 -41 46 C-41.02707139 43.75006641 -41.04642829 41.50003905 -41.0625 39.25 C-41.07410156 37.99703125 -41.08570312 36.7440625 -41.09765625 35.453125 C-41.02021027 32.71463499 -40.82780815 30.58119707 -40 28 C-41.98 28.99 -41.98 28.99 -44 30 C-44 26 -44 26 -43 24 C-42.76725791 21.12089412 -42.58027243 18.25853505 -42.4375 15.375 C-42.39431641 14.57320312 -42.35113281 13.77140625 -42.30664062 12.9453125 C-42.20048543 10.9637489 -42.09973145 8.98189729 -42 7 C-41.34 7 -40.68 7 -40 7 C-39.34 6.34 -38.68 5.68 -38 5 C-34.7421875 4.8046875 -34.7421875 4.8046875 -30.875 4.875 C-28.95300781 4.90207031 -28.95300781 4.90207031 -26.9921875 4.9296875 C-25.51105469 4.96449219 -25.51105469 4.96449219 -24 5 C-24 9.29 -24 13.58 -24 18 C-24.99 18.33 -25.98 18.66 -27 19 C-26.34 19.33 -25.68 19.66 -25 20 C-24.34 20.33 -23.68 20.66 -23 21 C-23 16.38 -23 11.76 -23 7 C-19.04 7 -15.08 7 -11 7 C-11 9.64 -11 12.28 -11 15 C-10.17361624 12.10765685 -10 10.11257569 -10 7 C-9.34 6.67 -8.68 6.34 -8 6 C-7.34 5.01 -6.68 4.02 -6 3 C-5.01 3 -4.02 3 -3 3 C-3 2.34 -3 1.68 -3 1 C-2.34 1 -1.68 1 -1 1 C-0.505 1.495 -0.505 1.495 0 2 C0 1.34 0 0.68 0 0 Z M4 3 C5 5 5 5 5 5 Z M-3 5 C-2 7 -2 7 -2 7 Z M9 5 C10 7 10 7 10 7 Z M-8 7 C-7 9 -7 9 -7 9 Z M-5 7 C-4 9 -4 9 -4 9 Z M19 11 C20 13 20 13 20 13 Z M11 13 C12 15 12 15 12 15 Z M18 13 C19 17 19 17 19 17 Z M-9 15 C-8 17 -8 17 -8 17 Z M12 15 C13 17 13 17 13 17 Z M-36 16 C-36 17.65 -36 19.3 -36 21 C-35.67 21 -35.34 21 -35 21 C-35 19.35 -35 17.7 -35 16 C-35.33 16 -35.66 16 -36 16 Z M-33 16 C-33 16.33 -33 16.66 -33 17 C-30.36 17 -27.72 17 -25 17 C-25 16.67 -25 16.34 -25 16 C-27.64 16 -30.28 16 -33 16 Z M-21 16 C-21 21.94 -21 27.88 -21 34 C-20.67 34 -20.34 34 -20 34 C-20 28.06 -20 22.12 -20 16 C-20.33 16 -20.66 16 -21 16 Z M-14 16 C-14 21.94 -14 27.88 -14 34 C-12.05376723 30.10753446 -11.72729557 28.6094383 -11.75 24.4375 C-11.74484375 23.48746094 -11.7396875 22.53742187 -11.734375 21.55859375 C-11.82423925 18.75900727 -11.82423925 18.75900727 -14 16 Z M25 16 C25 17.65 25 19.3 25 21 C25.33 21 25.66 21 26 21 C26 19.35 26 17.7 26 16 C25.67 16 25.34 16 25 16 Z M-2 17 C-1 19 -1 19 -1 19 Z M13 17 C14 21 14 21 14 21 Z M17 17 C17.33 19.31 17.66 21.62 18 24 C19.33304698 21.10813214 19.33304698 21.10813214 18.0625 18.8125 C17.711875 18.214375 17.36125 17.61625 17 17 Z M-10 18 C-9 20 -9 20 -9 20 Z M-3 19 C-2 21 -2 21 -2 21 Z M1 19 C2 22 2 22 2 22 Z M6 19 C6 22 6 22 6 22 Z M-11 21 C-10 23 -10 23 -10 23 Z M-4 21 C-4 23.97 -4 26.94 -4 30 C-3.67 30 -3.34 30 -3 30 C-3 27.03 -3 24.06 -3 21 C-3.33 21 -3.66 21 -4 21 Z M0 23 C1 25 1 25 1 25 Z M5 24 C6 26 6 26 6 26 Z M-24 25 C-23 28 -23 28 -23 28 Z M37 25 C38 28 38 28 38 28 Z M0 26 C1 28 1 28 1 28 Z M-23 28 C-23 30.97 -23 33.94 -23 37 C-22.67 37 -22.34 37 -22 37 C-22 34.03 -22 31.06 -22 28 C-22.33 28 -22.66 28 -23 28 Z M38 28 C38 30.97 38 33.94 38 37 C38.33 37 38.66 37 39 37 C39 34.03 39 31.06 39 28 C38.67 28 38.34 28 38 28 Z M1 29 C2 32 2 32 2 32 Z M-3 30 C-2 32 -2 32 -2 32 Z M5 30 C5.66 30.66 6.32 31.32 7 32 C7 31.34 7 30.68 7 30 C6.34 30 5.68 30 5 30 Z M13 30 C14 34 14 34 14 34 Z M-30 31 C-29 34 -29 34 -29 34 Z M-10 31 C-9 33 -9 33 -9 33 Z M31 31 C32 34 32 34 32 34 Z M-2 32 C-1 34 -1 34 -1 34 Z M-9 34 C-8 36 -8 36 -8 36 Z M12 34 C13 36 13 36 13 36 Z M37 37 C38 39 38 39 38 39 Z M-9 38 C-8 40 -8 40 -8 40 Z M-7 40 C-6 42 -6 42 -6 42 Z M-5 42 C-4 44 -4 44 -4 44 Z M8 42 C9 44 9 44 9 44 Z M6 44 C6 45.65 6 47.3 6 49 C6.33 49 6.66 49 7 49 C7 47.35 7 45.7 7 44 C6.67 44 6.34 44 6 44 Z M-1 45 C0 49 0 49 0 49 Z M4 46 C5 48 5 48 5 48 Z M-2 57 C-2 58.65 -2 60.3 -2 62 C-1.67 62 -1.34 62 -1 62 C-1 60.35 -1 58.7 -1 57 C-1.33 57 -1.66 57 -2 57 Z M3 58 C4 61 4 61 4 61 Z " fill="#D88244" transform="translate(158,5)"/>
<path d="M0 0 C4.95 0 9.9 0 15 0 C15 4.29 15 8.58 15 13 C14.01 13.33 13.02 13.66 12 14 C12.66 14.33 13.32 14.66 14 15 C14.66 15.33 15.32 15.66 16 16 C16 11.38 16 6.76 16 2 C19.96 2 23.92 2 28 2 C28 5.96 28 9.92 28 14 C27.34 14 26.68 14 26 14 C25.94593878 15.93719378 25.90717975 17.87481921 25.875 19.8125 C25.85179687 20.89144531 25.82859375 21.97039063 25.8046875 23.08203125 C25.76976283 26.19402868 25.76976283 26.19402868 28 29 C28.26402861 32.35316337 28.08751723 35.63058658 28 39 C24.37 39 20.74 39 17 39 C16.505 36.525 16.505 36.525 16 34 C14.25728062 36.297221 12.60088848 38.59866729 11 41 C7.9609375 41.29296875 7.9609375 41.29296875 4.375 41.1875 C3.18648437 41.16042969 1.99796875 41.13335937 0.7734375 41.10546875 C-0.14179687 41.07066406 -1.05703125 41.03585938 -2 41 C-2.02707139 38.75006641 -2.04642829 36.50003905 -2.0625 34.25 C-2.07410156 32.99703125 -2.08570312 31.7440625 -2.09765625 30.453125 C-2.02021027 27.71463499 -1.82780815 25.58119707 -1 23 C-2.98 23.99 -2.98 23.99 -5 25 C-5 21 -5 21 -4 19 C-3.76725791 16.12089412 -3.58027243 13.25853505 -3.4375 10.375 C-3.39431641 9.57320312 -3.35113281 8.77140625 -3.30664062 7.9453125 C-3.20048543 5.9637489 -3.09973145 3.98189729 -3 2 C-2.34 2 -1.68 2 -1 2 C-0.67 1.34 -0.34 0.68 0 0 Z M3 11 C3 12.65 3 14.3 3 16 C3.33 16 3.66 16 4 16 C4 14.35 4 12.7 4 11 C3.67 11 3.34 11 3 11 Z M6 11 C6 11.33 6 11.66 6 12 C8.64 12 11.28 12 14 12 C14 11.67 14 11.34 14 11 C11.36 11 8.72 11 6 11 Z M18 11 C18 16.94 18 22.88 18 29 C18.33 29 18.66 29 19 29 C19 23.06 19 17.12 19 11 C18.67 11 18.34 11 18 11 Z M15 20 C16 23 16 23 16 23 Z M16 23 C16 25.97 16 28.94 16 32 C16.33 32 16.66 32 17 32 C17 29.03 17 26.06 17 23 C16.67 23 16.34 23 16 23 Z M9 26 C10 29 10 29 10 29 Z " fill="#101011" transform="translate(119,10)"/>
<path d="M0 0 C4.93418739 0.98683748 6.52260584 1.61920012 10 5 C10.8125 7.25 10.8125 7.25 11 9 C11.99 9 12.98 9 14 9 C14.94401042 10.79036458 15.88802083 12.58072917 16.83203125 14.37109375 C17.99019799 16.32267987 17.99019799 16.32267987 21 17 C21.07465394 21.14425088 21.12883721 25.28813624 21.16479492 29.43286133 C21.17979877 30.84015734 21.20020863 32.24740724 21.22631836 33.65454102 C21.26307665 35.68777907 21.27980984 37.72039432 21.29296875 39.75390625 C21.3086792 40.97408447 21.32438965 42.1942627 21.34057617 43.45141602 C20.93748866 47.65132788 19.91857631 50.25876161 18 54 C16 55.375 16 55.375 14 56 C10.88667752 56.66868314 10.88667752 56.66868314 9.8125 59.0625 C9.544375 59.701875 9.27625 60.34125 9 61 C8.01 61 7.02 61 6 61 C5.7525 61.639375 5.505 62.27875 5.25 62.9375 C4 65 4 65 0 66 C0 44.22 0 22.44 0 0 Z M19 19 C19 27.25 19 35.5 19 44 C19.33 44 19.66 44 20 44 C20 35.75 20 27.5 20 19 C19.67 19 19.34 19 19 19 Z M8 37 C8 44.26 8 51.52 8 59 C8.33 59 8.66 59 9 59 C9 51.74 9 44.48 9 37 C8.67 37 8.34 37 8 37 Z M10 39 C10 44.28 10 49.56 10 55 C10.33 55 10.66 55 11 55 C11 49.72 11 44.44 11 39 C10.67 39 10.34 39 10 39 Z M18 44 C19 48 19 48 19 48 Z M17 48 C18 50 18 50 18 50 Z " fill="#101011" transform="translate(27,32)"/>
<path d="M0 0 C0 21.78 0 43.56 0 66 C-1.98 65.67 -3.96 65.34 -6 65 C-7.25 63.1875 -7.25 63.1875 -8 61 C-8.79996657 58.81601365 -8.79996657 58.81601365 -10 57 C-11.92638012 56.24756445 -11.92638012 56.24756445 -14 56 C-14.99 55.67 -15.98 55.34 -17 55 C-16.80583496 54.42443359 -16.61166992 53.84886719 -16.41162109 53.25585938 C-15.92095854 50.56681902 -16.38081792 49.40833974 -17.4140625 46.90625 C-19.27945812 41.70781567 -19.44681731 36.98205475 -19.375 31.5 C-19.39240234 30.17162109 -19.39240234 30.17162109 -19.41015625 28.81640625 C-19.37815407 21.55191132 -18.4077721 15.11281034 -13.87890625 9.2578125 C-13.11449219 8.55398437 -12.35007812 7.85015625 -11.5625 7.125 C-10.80066406 6.40570313 -10.03882813 5.68640625 -9.25390625 4.9453125 C-3.52409639 0 -3.52409639 0 0 0 Z M-8 19 C-8 20.65 -8 22.3 -8 24 C-7.67 24 -7.34 24 -7 24 C-7 22.35 -7 20.7 -7 19 C-7.33 19 -7.66 19 -8 19 Z M-11 21 C-11 22.65 -11 24.3 -11 26 C-10.67 26 -10.34 26 -10 26 C-10 24.35 -10 22.7 -10 21 C-10.33 21 -10.66 21 -11 21 Z M-9 37 C-8.67 37.66 -8.34 38.32 -8 39 C-5.69 39 -3.38 39 -1 39 C-1 38.34 -1 37.68 -1 37 C-3.64 37 -6.28 37 -9 37 Z " fill="#101011" transform="translate(26,32)"/>
<path d="M0 0 C4.95 0 9.9 0 15 0 C15 4.29 15 8.58 15 13 C14.01 13.33 13.02 13.66 12 14 C12.66 14.33 13.32 14.66 14 15 C16.91321693 17.68015957 17.95124839 19.08505704 18.16796875 23.15234375 C18.17763672 25.02599609 18.17763672 25.02599609 18.1875 26.9375 C18.20167969 28.18402344 18.21585938 29.43054688 18.23046875 30.71484375 C18 34 18 34 16 37 C15.01 37 14.02 37 13 37 C12.34 38.32 11.68 39.64 11 41 C6.71 41 2.42 41 -2 41 C-2.02707139 38.75006641 -2.04642829 36.50003905 -2.0625 34.25 C-2.07410156 32.99703125 -2.08570313 31.7440625 -2.09765625 30.453125 C-2.02021027 27.71463499 -1.82780815 25.58119707 -1 23 C-1.66 22.67 -2.32 22.34 -3 22 C-3.66 23.98 -4.32 25.96 -5 28 C-5.66 28 -6.32 28 -7 28 C-7.33 29.98 -7.66 31.96 -8 34 C-8.66 33.67 -9.32 33.34 -10 33 C-9.67 30.36 -9.34 27.72 -9 25 C-11.475 24.01 -11.475 24.01 -14 23 C-14 23.66 -14 24.32 -14 25 C-15.625 26.6875 -15.625 26.6875 -18 28 C-21.1875 27.8125 -21.1875 27.8125 -24 27 C-25.17673198 24.64653604 -25.16623866 23.1193967 -25.1875 20.5 C-25.20167969 19.7059375 -25.21585938 18.911875 -25.23046875 18.09375 C-25 16 -25 16 -23 14 C-21 13.33333333 -19 12.66666667 -17 12 C-16.67 13.32 -16.34 14.64 -16 16 C-13.69 16 -11.38 16 -9 16 C-9.33 13.36 -9.66 10.72 -10 8 C-9.34 7.67 -8.68 7.34 -8 7 C-7.67 7.99 -7.34 8.98 -7 10 C-6.566875 8.865625 -6.13375 7.73125 -5.6875 6.5625 C-5.130625 5.386875 -4.57375 4.21125 -4 3 C-3.01 2.67 -2.02 2.34 -1 2 C-0.67 1.34 -0.34 0.68 0 0 Z M-3 6 C-2 8 -2 8 -2 8 Z M-4 8 C-3 12 -3 12 -3 12 Z M3 11 C3 12.65 3 14.3 3 16 C3.33 16 3.66 16 4 16 C4 14.35 4 12.7 4 11 C3.67 11 3.34 11 3 11 Z M-5 12 C-4.67 14.31 -4.34 16.62 -4 19 C-2.66695302 16.10813214 -2.66695302 16.10813214 -3.9375 13.8125 C-4.288125 13.214375 -4.63875 12.61625 -5 12 Z M-22 18 C-21 20 -21 20 -21 20 Z M-17 19 C-16 21 -16 21 -16 21 Z M15 20 C16 23 16 23 16 23 Z M-22 21 C-21 23 -21 23 -21 23 Z M16 23 C16 25.97 16 28.94 16 32 C16.33 32 16.66 32 17 32 C17 29.03 17 26.06 17 23 C16.67 23 16.34 23 16 23 Z M9 26 C10 29 10 29 10 29 Z M15 32 C16 34 16 34 16 34 Z " fill="#101011" transform="translate(180,10)"/>
<path d="M0 0 C0.72445313 0.39832031 1.44890625 0.79664062 2.1953125 1.20703125 C4.18452226 2.2971182 6.17683004 3.38156702 8.171875 4.4609375 C10.25385604 5.59394928 12.31934292 6.75740056 14.375 7.9375 C17.60878305 9.24641219 18.677505 8.98967936 22 8 C24.29719199 6.6987164 26.48597081 5.38108483 28.6875 3.9375 C34.75192308 0 34.75192308 0 37 0 C37.33 10.56 37.66 21.12 38 32 C37.34 32 36.68 32 36 32 C35.4225 30.865625 34.845 29.73125 34.25 28.5625 C32.75728736 25.67808355 32.75728736 25.67808355 29.9375 24.375 C29.298125 24.25125 28.65875 24.1275 28 24 C26.9935725 22.33720673 25.99414593 20.67016516 25 19 C22.38691622 16.95190731 20.42317889 16.09403975 17.1875 15.375 C12.21922822 16.34917094 9.47362231 19.46410159 6 23 C5.41476562 23.58652344 4.82953125 24.17304687 4.2265625 24.77734375 C-2.06626913 31.54597485 -2.32623585 38.48081703 -2.25 47.375 C-2.26160156 48.71691406 -2.26160156 48.71691406 -2.2734375 50.0859375 C-2.25621262 56.01129531 -1.47297777 61.2600628 0 67 C-0.99 67.495 -0.99 67.495 -2 68 C-4.52304204 61.21181547 -4.29598387 54.54848417 -4.25 47.375 C-4.25773438 46.16070312 -4.26546875 44.94640625 -4.2734375 43.6953125 C-4.27085937 42.52484375 -4.26828125 41.354375 -4.265625 40.1484375 C-4.26224121 38.55781494 -4.26224121 38.55781494 -4.25878906 36.93505859 C-4 34 -4 34 -3.00708008 31.52685547 C-1.75794642 28.39266555 -1.69509901 25.79042294 -1.62109375 22.421875 C-1.58693359 21.17921875 -1.55277344 19.9365625 -1.51757812 18.65625 C-1.49115234 17.3671875 -1.46472656 16.078125 -1.4375 14.75 C-1.37787203 12.18219134 -1.3142955 9.61447024 -1.24609375 7.046875 C-1.22216553 5.91088867 -1.1982373 4.77490234 -1.17358398 3.60449219 C-1 1 -1 1 0 0 Z " fill="#F22B6B" transform="translate(9,16)"/>
<path d="M0 0 C2.8125 -0.3125 2.8125 -0.3125 6 0 C7.8125 2.375 7.8125 2.375 9 5 C9.33 5.66 9.66 6.32 10 7 C10.08400529 8.59447464 10.10727467 10.19240545 10.09765625 11.7890625 C10.09443359 12.73007813 10.09121094 13.67109375 10.08789062 14.640625 C10.07951172 15.62546875 10.07113281 16.6103125 10.0625 17.625 C10.05798828 18.61757812 10.05347656 19.61015625 10.04882812 20.6328125 C10.03702145 23.0886016 10.020554 25.54427104 10 28 C8.72382812 27.97679688 7.44765625 27.95359375 6.1328125 27.9296875 C4.4635475 27.91093171 2.7942762 27.89273131 1.125 27.875 C0.28324219 27.85824219 -0.55851562 27.84148437 -1.42578125 27.82421875 C-2.23144531 27.81777344 -3.03710938 27.81132813 -3.8671875 27.8046875 C-4.61081543 27.79421387 -5.35444336 27.78374023 -6.12060547 27.77294922 C-8.24490235 27.8334403 -8.24490235 27.8334403 -10 30 C-13.125 30.125 -13.125 30.125 -16 30 C-16.68620031 28.67661368 -17.34786461 27.34050052 -18 26 C-18.350625 25.3296875 -18.70125 24.659375 -19.0625 23.96875 C-20.41176422 19.69607996 -20.21126972 15.63702651 -20.125 11.1875 C-20.11597656 10.30384766 -20.10695313 9.42019531 -20.09765625 8.50976562 C-20.07419637 6.33972641 -20.03832865 4.16982753 -20 2 C-18.35 2 -16.7 2 -15 2 C-14.67 8.27 -14.34 14.54 -14 21 C-13.34 21 -12.68 21 -12 21 C-11.67 14.73 -11.34 8.46 -11 2 C-7.66666667 2 -4.33333333 2 -1 2 C-0.67 1.34 -0.34 0.68 0 0 Z M-3 6 C-2 8 -2 8 -2 8 Z M2 9 C3 11 3 11 3 11 Z M-7 21 C-6 24 -6 24 -6 24 Z " fill="#101011" transform="translate(105,54)"/>
<path d="M0 0 C15 0 15 0 20 2 C20 14.21 20 26.42 20 39 C19.67 39 19.34 39 19 39 C18.67 35.37 18.34 31.74 18 28 C15.03 28 12.06 28 9 28 C9 31.63 9 35.26 9 39 C6.03 39 3.06 39 0 39 C0 26.13 0 13.26 0 0 Z M18 2 C19 4 19 4 19 4 Z M7 11 C7 12.98 7 14.96 7 17 C7.33 17 7.66 17 8 17 C8 15.02 8 13.04 8 11 C7.67 11 7.34 11 7 11 Z M13 12 C14 16 14 16 14 16 Z " fill="#101011" transform="translate(55,10)"/>
<path d="M0 0 C2.97 0 5.94 0 9 0 C9 4.29 9 8.58 9 13 C9.66 13 10.32 13 11 13 C11 8.71 11 4.42 11 0 C13.64 0 16.28 0 19 0 C19 12.21 19 24.42 19 37 C16.36 37 13.72 37 11 37 C11 33.7 11 30.4 11 27 C10.34 27 9.68 27 9 27 C9 29.97 9 32.94 9 36 C6 37 6 37 0 37 C0 24.79 0 12.58 0 0 Z " fill="#101011" transform="translate(76,12)"/>
<path d="M0 0 C6.27 0 12.54 0 19 0 C19.57252827 17.31898003 19.57252827 17.31898003 15 23 C14.67 23.33 14.34 23.66 14 24 C13.76518307 26.18292774 13.58636677 28.37203174 13.4375 30.5625 C13.35371094 31.76003906 13.26992187 32.95757812 13.18359375 34.19140625 C13.12300781 35.11824219 13.06242187 36.04507813 13 37 C10.03 37 7.06 37 4 37 C4 33.37 4 29.74 4 26 C3.34 26 2.68 26 2 26 C2 29.63 2 33.26 2 37 C1.34 37 0.68 37 0 37 C0 24.79 0 12.58 0 0 Z M11 12 C12 15 12 15 12 15 Z M7 13 C8 15 8 15 8 15 Z M1 19 C2 21 2 21 2 21 Z M3 22 C3 22.99 3 23.98 3 25 C3.66 24.34 4.32 23.68 5 23 C4.34 22.67 3.68 22.34 3 22 Z " fill="#101011" transform="translate(96,12)"/>
<path d="M0 0 C3.3 0 6.6 0 10 0 C12.99477917 2.99477917 13.91401028 4.21233853 14.11352539 8.36010742 C14.10828857 9.26607666 14.10305176 10.1720459 14.09765625 11.10546875 C14.09443359 12.08837891 14.09121094 13.07128906 14.08789062 14.08398438 C14.07951172 15.10814453 14.07113281 16.13230469 14.0625 17.1875 C14.05798828 18.22326172 14.05347656 19.25902344 14.04882812 20.32617188 C14.03704026 22.8841392 14.01910482 25.44207686 14 28 C9.38 28 4.76 28 0 28 C0 18.76 0 9.52 0 0 Z M4 8 C4 9.65 4 11.3 4 13 C4.33 13 4.66 13 5 13 C5 11.35 5 9.7 5 8 C4.67 8 4.34 8 4 8 Z M9 9 C10 12 10 12 10 12 Z " fill="#100F11" transform="translate(152,54)"/>
<path d="M0 0 C3.63 0 7.26 0 11 0 C11 2.97 11 5.94 11 9 C11.66 9 12.32 9 13 9 C13.27716268 16.62197381 12.43680414 23.12639172 9 30 C5.7 30 2.4 30 -1 30 C-1 25.33333333 -1 20.66666667 -1 16 C-1.20327082 14.58259808 -1.41210661 13.16598857 -1.625 11.75 C-2.15866042 7.28333541 -1.52124333 4.20579039 0 0 Z M3 8 C4 10 4 10 4 10 Z M11 14 C12 16 12 16 12 16 Z M7 19 C8 21 8 21 8 21 Z " fill="#101011" transform="translate(171,54)"/>
<path d="M0 0 C4.62 0 9.24 0 14 0 C14 8.58 14 17.16 14 26 C9.38 26 4.76 26 0 26 C0 17.42 0 8.84 0 0 Z " fill="#101011" transform="translate(68,56)"/>
<path d="M0 0 C3.3 0 6.6 0 10 0 C10 9.9 10 19.8 10 30 C6.7 30 3.4 30 0 30 C-3.14826131 24.82488972 -3.43278959 20.80282054 -3.3125 14.9375 C-3.31572266 14.14794922 -3.31894531 13.35839844 -3.32226562 12.54492188 C-3.23643718 3.23643718 -3.23643718 3.23643718 0 0 Z M1 9 C2 11 2 11 2 11 Z M1 19 C2 21 2 21 2 21 Z " fill="#101011" transform="translate(139,54)"/>
<path d="M0 0 C1.58206057 0.00667536 3.16410534 0.0186375 4.74609375 0.03515625 C5.55240234 0.03966797 6.35871094 0.04417969 7.18945312 0.04882812 C9.18753131 0.06065107 11.18557158 0.07858711 13.18359375 0.09765625 C13.18359375 3.06765625 13.18359375 6.03765625 13.18359375 9.09765625 C12.19359375 9.09765625 11.20359375 9.09765625 10.18359375 9.09765625 C10.18359375 14.70765625 10.18359375 20.31765625 10.18359375 26.09765625 C7.21359375 26.09765625 4.24359375 26.09765625 1.18359375 26.09765625 C1.18359375 20.48765625 1.18359375 14.87765625 1.18359375 9.09765625 C0.19359375 9.09765625 -0.79640625 9.09765625 -1.81640625 9.09765625 C-1.81640625 14.70765625 -1.81640625 20.31765625 -1.81640625 26.09765625 C-2.14640625 26.09765625 -2.47640625 26.09765625 -2.81640625 26.09765625 C-2.87699219 25.04707031 -2.93757813 23.99648437 -3 22.9140625 C-3.08407727 21.49606055 -3.16875143 20.0780939 -3.25390625 18.66015625 C-3.29757324 17.93111084 -3.34124023 17.20206543 -3.38623047 16.45092773 C-3.6328071 12.50263037 -3.95052132 8.58723568 -4.44140625 4.66015625 C-4.56515625 3.48453125 -4.68890625 2.30890625 -4.81640625 1.09765625 C-3.81640625 0.09765625 -3.81640625 0.09765625 0 0 Z " fill="#101011" transform="translate(119.81640625,55.90234375)"/>
<path d="M0 0 C0.33 0.66 0.66 1.32 1 2 C1.66 2 2.32 2 3 2 C3.33 3.65 3.66 5.3 4 7 C4.99 7.33 5.98 7.66 7 8 C7.69258229 9.99117408 8.35747635 11.9921136 9 14 C10.12640605 15.96040481 10.12640605 15.96040481 12 17 C14.95720628 17.66680368 14.95720628 17.66680368 18 17 C20.80519876 14.27061743 22.4229284 11.89523329 23 8 C23.99 8 24.98 8 26 8 C25.24234694 14.56632653 25.24234694 14.56632653 23.8125 17.125 C22.70549608 19.11677485 22.70549608 19.11677485 23.875 21.75 C24.24625 22.4925 24.6175 23.235 25 24 C24.01 24.66 23.02 25.32 22 26 C21.34 26.99 20.68 27.98 20 29 C18.046875 28.73958333 16.09375 28.47916667 14.140625 28.21875 C11.69541605 27.93222643 11.69541605 27.93222643 8 28 C6.375 25.625 6.375 25.625 5 23 C4.34 22.34 3.68 21.68 3 21 C2.40234375 18.94140625 2.40234375 18.94140625 1.9375 16.5625 C1.41445483 13.93862879 0.84906993 11.54720979 0 9 C-0.06740865 7.43881572 -0.08514456 5.8749748 -0.0625 4.3125 C-0.05347656 3.50425781 -0.04445312 2.69601563 -0.03515625 1.86328125 C-0.02355469 1.24839844 -0.01195312 0.63351563 0 0 Z M3 10 C4 12 4 12 4 12 Z M4 13 C5 15 5 15 5 15 Z M4 17 C5 19 5 19 5 19 Z M6 19 C7 21 7 21 7 21 Z M8 21 C9 23 9 23 9 23 Z M21 21 C22 23 22 23 22 23 Z M19 23 C19 24.65 19 26.3 19 28 C19.33 28 19.66 28 20 28 C20 26.35 20 24.7 20 23 C19.67 23 19.34 23 19 23 Z M17 25 C18 27 18 27 18 27 Z " fill="#9B0495" transform="translate(145,26)"/>
<path d="M0 0 C0.33 0 0.66 0 1 0 C1 8.58 1 17.16 1 26 C-2.96 26 -6.92 26 -11 26 C-11 18.74 -11 11.48 -11 4 C-7.37 4 -3.74 4 0 4 C0 2.68 0 1.36 0 0 Z " fill="#101011" transform="translate(66,56)"/>
<path d="M0 0 C3.44073328 5.16109992 6.57866918 10.18288251 5.75 16.5625 C5.5025 17.696875 5.255 18.83125 5 20 C4.01 20.33 3.02 20.66 2 21 C1.67 22.98 1.34 24.96 1 27 C0.34 26.67 -0.32 26.34 -1 26 C-0.67 23.36 -0.34 20.72 0 18 C-2.475 17.01 -2.475 17.01 -5 16 C-5 16.66 -5 17.32 -5 18 C-6.625 19.6875 -6.625 19.6875 -9 21 C-12.1875 20.8125 -12.1875 20.8125 -15 20 C-16.17673198 17.64653604 -16.16623866 16.1193967 -16.1875 13.5 C-16.20167969 12.7059375 -16.21585938 11.911875 -16.23046875 11.09375 C-16 9 -16 9 -14 7 C-12 6.33333333 -10 5.66666667 -8 5 C-7.67 6.32 -7.34 7.64 -7 9 C-4.69 9 -2.38 9 0 9 C-0.185625 7.700625 -0.37125 6.40125 -0.5625 5.0625 C-0.87890625 2.84765625 -0.87890625 2.84765625 -1 1 C-0.67 0.67 -0.34 0.34 0 0 Z M-13 11 C-12 13 -12 13 -12 13 Z M-8 12 C-7 14 -7 14 -7 14 Z M-13 14 C-12 16 -12 16 -12 16 Z " fill="#3D2436" transform="translate(171,17)"/>
<path d="M0 0 C3.63 0 7.26 0 11 0 C11 6.27 11 12.54 11 19 C7.37 19 3.74 19 0 19 C0 12.73 0 6.46 0 0 Z " fill="#101011" transform="translate(185,63)"/>
<path d="M0 0 C3 2 3 2 3.73046875 4.3828125 C3.88128906 5.28773437 4.03210938 6.19265625 4.1875 7.125 C4.34605469 8.03507812 4.50460938 8.94515625 4.66796875 9.8828125 C4.83232422 10.93082031 4.83232422 10.93082031 5 12 C5.763125 12 6.52625 12 7.3125 12 C9.20833333 12 11.10416667 12 13 12 C13.66 11.01 14.32 10.02 15 9 C15.66 9 16.32 9 17 9 C16.69029053 12.40680413 16.31233339 14.56041967 14.3125 17.375 C12 19 12 19 9.0625 19.5625 C4.94724086 18.80663608 3.54142218 17.2675428 1 14 C-0.59164608 9.59236469 -0.09101586 4.64180905 0 0 Z " fill="#EE1778" transform="translate(151,25)"/>
<path d="M0 0 C2.0081326 0.28020455 4.0075675 0.62406934 6 1 C6.9075 1.165 7.815 1.33 8.75 1.5 C11.56846037 3.37897358 11.58801019 4.39266087 12.3125 7.625 C12.56262996 9.07988435 12.79839367 10.53760185 13 12 C10 12 10 12 8 11 C8 10.34 8 9.68 8 9 C1.93949386 7.9187609 1.93949386 7.9187609 -4 9 C-4.33 7.02 -4.66 5.04 -5 3 C-4.34 3 -3.68 3 -3 3 C-3 2.34 -3 1.68 -3 1 C-2.34 1 -1.68 1 -1 1 C-0.67 1.33 -0.34 1.66 0 2 C0 1.34 0 0.68 0 0 Z M4 3 C5 5 5 5 5 5 Z M-3 5 C-2 7 -2 7 -2 7 Z M9 5 C10 7 10 7 10 7 Z " fill="#CD6E51" transform="translate(158,5)"/>
<path d="M0 0 C2.83491939 2.06872496 3.82469988 3.3572329 4.75 6.75 C4.87375 7.86375 4.87375 7.86375 5 9 C2 9 2 9 -0.1875 7 C-0.785625 6.34 -1.38375 5.68 -2 5 C-2 5.66 -2 6.32 -2 7 C-2.7425 6.9175 -3.485 6.835 -4.25 6.75 C-7.78157027 7.07105184 -8.76630364 8.35265617 -11 11 C-10.7128051 7.26646636 -10.46797134 4.67595861 -8.3125 1.5625 C-5.26222457 -0.49849691 -3.61360931 -0.60226822 0 0 Z " fill="#F77545" transform="translate(163,17)"/>
<path d="M0 0 C0.66 0 1.32 0 2 0 C4 3 4 3 4 7 C4.66 7 5.32 7 6 7 C5.690625 7.825 5.38125 8.65 5.0625 9.5 C3.88122417 13.39126155 3.41775832 16.96166953 3 21 C2.34 21 1.68 21 1 21 C-2.36986301 12.91232877 -2.36986301 12.91232877 -1.0625 9.6875 C0.25814394 6.34704768 0.13959269 3.55961371 0 0 Z M1 8 C2 10 2 10 2 10 Z M0 11 C1 13 1 13 1 13 Z " fill="#C45860" transform="translate(148,12)"/>
<path d="M0 0 C0.66 0 1.32 0 2 0 C1.83886719 0.94101562 1.67773438 1.88203125 1.51171875 2.8515625 C0.82484641 7.68763003 0.81598362 12.49792811 0.8125 17.375 C0.80025391 18.26960938 0.78800781 19.16421875 0.77539062 20.0859375 C0.76244182 26.0251217 1.51772981 31.24668248 3 37 C2.01 37.495 2.01 37.495 1 38 C-1.54430764 31.19171433 -1.26026028 24.50810893 -1.1875 17.3125 C-1.18685547 16.08982422 -1.18621094 14.86714844 -1.18554688 13.60742188 C-1.13691135 3.76683396 -1.13691135 3.76683396 0 0 Z " fill="#120F11" transform="translate(6,46)"/>
<path d="M0 0 C0.66 0.99 1.32 1.98 2 3 C1.67 3.66 1.34 4.32 1 5 C1.11291681 6.67116886 1.28748977 8.33855636 1.5 10 C2.11111111 14.77777778 2.11111111 14.77777778 1 17 C0.93049459 18.54023996 0.91547643 20.08334988 0.9375 21.625 C0.95103516 22.85089844 0.95103516 22.85089844 0.96484375 24.1015625 C0.97644531 24.72804688 0.98804688 25.35453125 1 26 C0.34 26 -0.32 26 -1 26 C-1.6466598 17.98603754 -2.16677223 10.04212755 -2 2 C-1.34 2 -0.68 2 0 2 C0 1.34 0 0.68 0 0 Z " fill="#101011" transform="translate(168,56)"/>
<path d="M0 0 C0 12.21 0 24.42 0 37 C-0.33 37 -0.66 37 -1 37 C-1 25.45 -1 13.9 -1 2 C-1.66 1.67 -2.32 1.34 -3 1 C-1 0 -1 0 0 0 Z " fill="#1B1414" transform="translate(54,12)"/>
<path d="M0 0 C0.99 0.33 1.98 0.66 3 1 C2.67 1.99 2.34 2.98 2 4 C1.91893314 5.55421729 1.89243102 7.11167027 1.90234375 8.66796875 C1.90556641 9.56064453 1.90878906 10.45332031 1.91210938 11.37304688 C1.92048828 12.30181641 1.92886719 13.23058594 1.9375 14.1875 C1.94201172 15.12787109 1.94652344 16.06824219 1.95117188 17.03710938 C1.96295374 19.35813712 1.97940442 21.67903644 2 24 C1.34 24.33 0.68 24.66 0 25 C-1.25105076 16.55540739 -1.465748 8.42805098 0 0 Z " fill="#101011" transform="translate(134,56)"/>
<path d="M0 0 C0.66 0 1.32 0 2 0 C2 6.27 2 12.54 2 19 C1.34 19 0.68 19 0 19 C0 12.73 0 6.46 0 0 Z " fill="#101011" transform="translate(91,56)"/>
<path d="M0 0 C1.32 0.33 2.64 0.66 4 1 C4.66 3.97 5.32 6.94 6 10 C3 10 3 10 1 9 C1 8.34 1 7.68 1 7 C-0.32 6.34 -1.64 5.68 -3 5 C-2.01 5 -1.02 5 0 5 C0 3.35 0 1.7 0 0 Z M2 3 C3 5 3 5 3 5 Z " fill="#C15663" transform="translate(165,7)"/>
<path d="M0 0 C0.33 0 0.66 0 1 0 C1.06058594 1.31355469 1.12117188 2.62710938 1.18359375 3.98046875 C1.26803256 5.71615541 1.35267888 7.45183198 1.4375 9.1875 C1.47681641 10.05181641 1.51613281 10.91613281 1.55664062 11.80664062 C1.76347016 15.95914122 2.00103531 19.94537862 3 24 C2.01 24.66 1.02 25.32 0 26 C0 17.42 0 8.84 0 0 Z " fill="#101011" transform="translate(83,56)"/>
<path d="M0 0 C0.66 0 1.32 0 2 0 C2 1.65 2 3.3 2 5 C2.66 5.33 3.32 5.66 4 6 C4 8.31 4 10.62 4 13 C3.34 13 2.68 13 2 13 C-1.48790323 4.62903226 -1.48790323 4.62903226 0 0 Z " fill="#AF3178" transform="translate(147,20)"/>
<path d="M0 0 C0.33 0.66 0.66 1.32 1 2 C1.66 2 2.32 2 3 2 C3.33 3.65 3.66 5.3 4 7 C4.99 7.33 5.98 7.66 7 8 C6.67 8.99 6.34 9.98 6 11 C5.34 11 4.68 11 4 11 C3.34 10.01 2.68 9.02 2 8 C1.01 8.495 1.01 8.495 0 9 C0 6.03 0 3.06 0 0 Z " fill="#871373" transform="translate(145,26)"/>
<path d="M0 0 C2.375 0.25 2.375 0.25 5 1 C7.09862498 3.89810116 7 5.28378861 7 9 C6.01 9 5.02 9 4 9 C2.68 6.03 1.36 3.06 0 0 Z " fill="#CA6557" transform="translate(164,17)"/>
<path d="M0 0 C0.33 0 0.66 0 1 0 C1 8.58 1 17.16 1 26 C0.67 26 0.34 26 0 26 C-1.03679459 17.29833113 -1.82057444 8.6477286 0 0 Z " fill="#101011" transform="translate(150,56)"/>
<path d="M0 0 C2 2 2 2 2.1953125 4.3828125 C2.17210937 5.28773437 2.14890625 6.19265625 2.125 7.125 C2.10695312 8.03507812 2.08890625 8.94515625 2.0703125 9.8828125 C2.03550781 10.93082031 2.03550781 10.93082031 2 12 C1.01 12.495 1.01 12.495 0 13 C-1.18306728 10.63386544 -1.13354608 9.13219264 -1.125 6.5 C-1.12757813 5.7059375 -1.13015625 4.911875 -1.1328125 4.09375 C-1 2 -1 2 0 0 Z " fill="#BF3A51" transform="translate(156,24)"/>
<path d="M0 0 C0.2475 0.5775 0.495 1.155 0.75 1.75 C1.93990475 4.13449889 1.93990475 4.13449889 4.125 6.125 C6 8 6 8 6 10 C5.34 10 4.68 10 4 10 C3.67 10.66 3.34 11.32 3 12 C2.34 11.67 1.68 11.34 1 11 C0.60828247 9.34608154 0.27942455 7.67654729 0 6 C-0.33 5.01 -0.66 4.02 -1 3 C-0.67 2.01 -0.34 1.02 0 0 Z " fill="#CD6B53" transform="translate(151,8)"/>
<path d="M0 0 C1.485 0.99 1.485 0.99 3 2 C3.40843923 4.71203652 3.13336867 7.2437142 3 10 C2.01 10.495 2.01 10.495 1 11 C-0.20272819 8.59454362 -0.10071472 7.05003047 -0.0625 4.375 C-0.05347656 3.55773437 -0.04445312 2.74046875 -0.03515625 1.8984375 C-0.02355469 1.27195312 -0.01195312 0.64546875 0 0 Z " fill="#F04061" transform="translate(151,25)"/>
<path d="M0 0 C3.63 0 7.26 0 11 0 C11 0.66 11 1.32 11 2 C7.37 2 3.74 2 0 2 C0 1.34 0 0.68 0 0 Z " fill="#101011" transform="translate(185,60)"/>
<path d="M0 0 C0.66 0 1.32 0 2 0 C4 3 4 3 3.625 5.6875 C3.41875 6.450625 3.2125 7.21375 3 8 C2.01 7.67 1.02 7.34 0 7 C0 4.69 0 2.38 0 0 Z " fill="#AB4A58" transform="translate(148,12)"/>
<path d="M0 0 C0.33 0 0.66 0 1 0 C1 6.27 1 12.54 1 19 C0.67 19 0.34 19 0 19 C0 12.73 0 6.46 0 0 Z " fill="#101011" transform="translate(197,63)"/>
<path d="M0 0 C0.33 0 0.66 0 1 0 C1 6.27 1 12.54 1 19 C0.67 19 0.34 19 0 19 C0 12.73 0 6.46 0 0 Z " fill="#101011" transform="translate(53,63)"/>
<path d="M0 0 C0.66 0 1.32 0 2 0 C2 2.97 2 5.94 2 9 C1.34 8.67 0.68 8.34 0 8 C0 5.36 0 2.72 0 0 Z " fill="#101011" transform="translate(114,40)"/>
<path d="M0 0 C4.95 0 9.9 0 15 0 C15 0.33 15 0.66 15 1 C10.05 1 5.1 1 0 1 C0 0.67 0 0.34 0 0 Z " fill="#101011" transform="translate(118,54)"/>
<path d="M0 0 C0.66 0.66 1.32 1.32 2 2 C1.9765625 4.6015625 1.9765625 4.6015625 1.625 7.625 C1.51414062 8.62789062 1.40328125 9.63078125 1.2890625 10.6640625 C1.19367188 11.43492188 1.09828125 12.20578125 1 13 C0.67 13 0.34 13 0 13 C0 8.71 0 4.42 0 0 Z " fill="#101011" transform="translate(110,36)"/>
<path d="M0 0 C3.96 0 7.92 0 12 0 C12 0.33 12 0.66 12 1 C8.04 1 4.08 1 0 1 C0 0.67 0 0.34 0 0 Z " fill="#101011" transform="translate(55,83)"/>
<path d="M0 0 C3.63 0 7.26 0 11 0 C11 0.33 11 0.66 11 1 C7.37 1 3.74 1 0 1 C0 0.67 0 0.34 0 0 Z " fill="#101011" transform="translate(185,83)"/>
<path d="M0 0 C3.63 0 7.26 0 11 0 C11 0.33 11 0.66 11 1 C7.37 1 3.74 1 0 1 C0 0.67 0 0.34 0 0 Z " fill="#101011" transform="translate(136,50)"/>
<path d="M0 0 C3.63 0 7.26 0 11 0 C11 0.33 11 0.66 11 1 C7.37 1 3.74 1 0 1 C0 0.67 0 0.34 0 0 Z " fill="#101011" transform="translate(136,10)"/>
<path d="M0 0 C0.33 0 0.66 0 1 0 C1 2.97 1 5.94 1 9 C0.67 9 0.34 9 0 9 C0 6.03 0 3.06 0 0 Z " fill="#101011" transform="translate(176,40)"/>
<path d="M0 0 C0.33 0 0.66 0 1 0 C1 2.97 1 5.94 1 9 C0.67 9 0.34 9 0 9 C0 6.03 0 3.06 0 0 Z " fill="#101011" transform="translate(196,12)"/>
<path d="M0 0 C2.31 0 4.62 0 7 0 C7 0.33 7 0.66 7 1 C4.69 1 2.38 1 0 1 C0 0.67 0 0.34 0 0 Z " fill="#101011" transform="translate(102,50)"/>
<path d="M0 0 C2.31 0 4.62 0 7 0 C7 0.33 7 0.66 7 1 C4.69 1 2.38 1 0 1 C0 0.67 0 0.34 0 0 Z " fill="#101011" transform="translate(55,50)"/>
<path d="M0 0 C0.33 0 0.66 0 1 0 C1 1.98 1 3.96 1 6 C0.67 6 0.34 6 0 6 C0 4.02 0 2.04 0 0 Z " fill="#101011" transform="translate(183,56)"/>
<path d="M0 0 C1.98 0 3.96 0 6 0 C6 0.33 6 0.66 6 1 C4.02 1 2.04 1 0 1 C0 0.67 0 0.34 0 0 Z " fill="#101011" transform="translate(89,50)"/>
<path d="M0 0 C1.98 0 3.96 0 6 0 C6 0.33 6 0.66 6 1 C4.02 1 2.04 1 0 1 C0 0.67 0 0.34 0 0 Z " fill="#101011" transform="translate(76,50)"/>
<path d="M0 0 C1.98 0 3.96 0 6 0 C6 0.33 6 0.66 6 1 C4.02 1 2.04 1 0 1 C0 0.67 0 0.34 0 0 Z " fill="#101011" transform="translate(109,10)"/>
<path d="M0 0 C1.98 0 3.96 0 6 0 C6 0.33 6 0.66 6 1 C4.02 1 2.04 1 0 1 C0 0.67 0 0.34 0 0 Z " fill="#101011" transform="translate(96,10)"/>
<path d="M0 0 C1.98 0 3.96 0 6 0 C6 0.33 6 0.66 6 1 C4.02 1 2.04 1 0 1 C0 0.67 0 0.34 0 0 Z " fill="#101011" transform="translate(89,10)"/>
<path d="M0 0 C1.98 0 3.96 0 6 0 C6 0.33 6 0.66 6 1 C4.02 1 2.04 1 0 1 C0 0.67 0 0.34 0 0 Z " fill="#101011" transform="translate(76,10)"/>
<path d="M0 0 C1.65 0 3.3 0 5 0 C5 0.33 5 0.66 5 1 C3.35 1 1.7 1 0 1 C0 0.67 0 0.34 0 0 Z " fill="#101011" transform="translate(123,83)"/>
<path d="M0 0 C1.65 0 3.3 0 5 0 C5 0.33 5 0.66 5 1 C3.35 1 1.7 1 0 1 C0 0.67 0 0.34 0 0 Z " fill="#101011" transform="translate(68,83)"/>
<path d="M0 0 C0.33 1.32 0.66 2.64 1 4 C0.34 3.34 -0.32 2.68 -1 2 C-0.67 1.34 -0.34 0.68 0 0 Z " fill="#101011" transform="translate(183,78)"/>
<path d="M0 0 C1.65 0 3.3 0 5 0 C5 0.33 5 0.66 5 1 C3.35 1 1.7 1 0 1 C0 0.67 0 0.34 0 0 Z " fill="#101011" transform="translate(94,54)"/>
<path d="M0 0 C1.65 0 3.3 0 5 0 C5 0.33 5 0.66 5 1 C3.35 1 1.7 1 0 1 C0 0.67 0 0.34 0 0 Z " fill="#101011" transform="translate(85,54)"/>
<path d="M0 0 C1.65 0 3.3 0 5 0 C5 0.33 5 0.66 5 1 C3.35 1 1.7 1 0 1 C0 0.67 0 0.34 0 0 Z " fill="#101011" transform="translate(68,54)"/>
<path d="M0 0 C4 1 4 1 4 1 Z " fill="#101011" transform="translate(162,83)"/>
<path d="M0 0 C4 1 4 1 4 1 Z " fill="#101011" transform="translate(152,83)"/>
<path d="M0 0 C4 1 4 1 4 1 Z " fill="#101011" transform="translate(111,83)"/>
<path d="M0 0 C4 1 4 1 4 1 Z " fill="#101011" transform="translate(102,83)"/>
<path d="M0 0 C4 1 4 1 4 1 Z " fill="#101011" transform="translate(78,83)"/>
<path d="M0 0 C4 1 4 1 4 1 Z " fill="#101011" transform="translate(78,54)"/>
<path d="M0 0 C0 3 0 3 0 3 Z " fill="#101011" transform="translate(133,46)"/>
<path d="M0 0 C0 3 0 3 0 3 Z " fill="#9B0199" transform="translate(170,44)"/>
<path d="M0 0 C0.66 0.33 1.32 0.66 2 1 C1.01 1 0.02 1 -1 1 C-0.67 0.67 -0.34 0.34 0 0 Z " fill="#BE4F3D" transform="translate(52,10)"/>
<path d="M0 0 C0.99 0.495 0.99 0.495 2 1 C1.01 1.495 1.01 1.495 0 2 C0 1.34 0 0.68 0 0 Z " fill="#221E29" transform="translate(176,34)"/>
<path d="M0 0 C0.99 0.495 0.99 0.495 2 1 C1.01 1.495 1.01 1.495 0 2 C0 1.34 0 0.68 0 0 Z " fill="#F75B52" transform="translate(1,7)"/>
<path d="M0 0 C2 1 2 1 2 1 Z " fill="#101011" transform="translate(167,83)"/>
<path d="M0 0 C2 1 2 1 2 1 Z " fill="#101011" transform="translate(91,54)"/>
<path d="M0 0 C2 1 2 1 2 1 Z " fill="#550856" transform="translate(148,50)"/>
<path d="" fill="#9B009B" transform="translate(0,0)"/>
<path d="" fill="#101011" transform="translate(0,0)"/>
<path d="" fill="#16151A" transform="translate(0,0)"/>
<path d="" fill="#101011" transform="translate(0,0)"/>
<path d="" fill="#BB476B" transform="translate(0,0)"/>
<path d="M0 0 C2 1 2 1 2 1 Z " fill="#F74F58" transform="translate(1,13)"/>
<path d="M0 0 C2 1 2 1 2 1 Z " fill="#6C3B34" transform="translate(148,10)"/>
<path d="" fill="#101011" transform="translate(0,0)"/>
<path d="" fill="#101011" transform="translate(0,0)"/>
<path d="" fill="#101011" transform="translate(0,0)"/>
<path d="" fill="#101011" transform="translate(0,0)"/>
<path d="" fill="#101011" transform="translate(0,0)"/>
<path d="" fill="#101011" transform="translate(0,0)"/>
<path d="" fill="#101011" transform="translate(0,0)"/>
<path d="" fill="#101011" transform="translate(0,0)"/>
<path d="" fill="#101011" transform="translate(0,0)"/>
<path d="" fill="#101011" transform="translate(0,0)"/>
<path d="" fill="#101011" transform="translate(0,0)"/>
<path d="" fill="#101011" transform="translate(0,0)"/>
<path d="" fill="#101011" transform="translate(0,0)"/>
<path d="" fill="#101011" transform="translate(0,0)"/>
<path d="" fill="#101011" transform="translate(0,0)"/>
<path d="" fill="#101011" transform="translate(0,0)"/>
<path d="" fill="#101011" transform="translate(0,0)"/>
<path d="" fill="#101011" transform="translate(0,0)"/>
<path d="" fill="#101011" transform="translate(0,0)"/>
<path d="" fill="#101011" transform="translate(0,0)"/>
<path d="" fill="#101011" transform="translate(0,0)"/>
<path d="" fill="#101011" transform="translate(0,0)"/>
<path d="" fill="#101011" transform="translate(0,0)"/>
<path d="" fill="#101011" transform="translate(0,0)"/>
<path d="" fill="#101011" transform="translate(0,0)"/>
<path d="" fill="#101011" transform="translate(0,0)"/>
<path d="" fill="#101011" transform="translate(0,0)"/>
<path d="" fill="#101011" transform="translate(0,0)"/>
<path d="" fill="#101011" transform="translate(0,0)"/>
<path d="" fill="#101011" transform="translate(0,0)"/>
<path d="" fill="#101011" transform="translate(0,0)"/>
<path d="" fill="#101011" transform="translate(0,0)"/>
<path d="" fill="#101011" transform="translate(0,0)"/>
<path d="" fill="#101011" transform="translate(0,0)"/>
<path d="" fill="#101011" transform="translate(0,0)"/>
<path d="" fill="#101011" transform="translate(0,0)"/>
<path d="" fill="#101011" transform="translate(0,0)"/>
<path d="" fill="#101011" transform="translate(0,0)"/>
<path d="" fill="#101011" transform="translate(0,0)"/>
<path d="" fill="#101011" transform="translate(0,0)"/>
<path d="" fill="#101011" transform="translate(0,0)"/>
<path d="" fill="#101011" transform="translate(0,0)"/>
<path d="" fill="#101011" transform="translate(0,0)"/>
<path d="" fill="#101011" transform="translate(0,0)"/>
<path d="" fill="#101011" transform="translate(0,0)"/>
<path d="" fill="#101011" transform="translate(0,0)"/>
<path d="" fill="#101011" transform="translate(0,0)"/>
<path d="" fill="#101011" transform="translate(0,0)"/>
<path d="" fill="#101011" transform="translate(0,0)"/>
<path d="" fill="#101011" transform="translate(0,0)"/>
<path d="" fill="#101011" transform="translate(0,0)"/>
<path d="" fill="#101011" transform="translate(0,0)"/>
<path d="" fill="#101011" transform="translate(0,0)"/>
<path d="" fill="#101011" transform="translate(0,0)"/>
<path d="" fill="#101011" transform="translate(0,0)"/>
<path d="" fill="#101011" transform="translate(0,0)"/>
<path d="" fill="#101011" transform="translate(0,0)"/>
<path d="" fill="#101011" transform="translate(0,0)"/>
<path d="" fill="#101011" transform="translate(0,0)"/>
<path d="" fill="#101011" transform="translate(0,0)"/>
<path d="" fill="#101011" transform="translate(0,0)"/>
<path d="" fill="#101011" transform="translate(0,0)"/>
<path d="" fill="#101011" transform="translate(0,0)"/>
<path d="" fill="#101011" transform="translate(0,0)"/>
<path d="" fill="#101011" transform="translate(0,0)"/>
<path d="" fill="#101011" transform="translate(0,0)"/>
<path d="" fill="#101011" transform="translate(0,0)"/>
<path d="" fill="#101011" transform="translate(0,0)"/>
<path d="" fill="#101011" transform="translate(0,0)"/>
<path d="" fill="#101011" transform="translate(0,0)"/>
<path d="" fill="#101011" transform="translate(0,0)"/>
<path d="" fill="#101011" transform="translate(0,0)"/>
<path d="" fill="#101011" transform="translate(0,0)"/>
<path d="" fill="#101011" transform="translate(0,0)"/>
<path d="" fill="#101011" transform="translate(0,0)"/>
<path d="" fill="#101011" transform="translate(0,0)"/>
<path d="" fill="#9B009B" transform="translate(0,0)"/>
<path d="" fill="#9B009B" transform="translate(0,0)"/>
<path d="" fill="#9B009B" transform="translate(0,0)"/>
<path d="" fill="#101011" transform="translate(0,0)"/>
<path d="" fill="#101011" transform="translate(0,0)"/>
<path d="" fill="#9B009B" transform="translate(0,0)"/>
<path d="" fill="#101011" transform="translate(0,0)"/>
<path d="" fill="#101011" transform="translate(0,0)"/>
<path d="" fill="#101011" transform="translate(0,0)"/>
<path d="" fill="#101011" transform="translate(0,0)"/>
<path d="" fill="#101011" transform="translate(0,0)"/>
<path d="" fill="#101011" transform="translate(0,0)"/>
<path d="" fill="#101011" transform="translate(0,0)"/>
<path d="" fill="#101011" transform="translate(0,0)"/>
<path d="" fill="#101011" transform="translate(0,0)"/>
<path d="" fill="#101011" transform="translate(0,0)"/>
<path d="" fill="#101011" transform="translate(0,0)"/>
<path d="" fill="#101011" transform="translate(0,0)"/>
<path d="" fill="#101011" transform="translate(0,0)"/>
<path d="" fill="#101011" transform="translate(0,0)"/>
<path d="" fill="#101011" transform="translate(0,0)"/>
<path d="" fill="#9C0299" transform="translate(0,0)"/>
<path d="" fill="#9B0199" transform="translate(0,0)"/>
<path d="" fill="#101011" transform="translate(0,0)"/>
<path d="" fill="#101011" transform="translate(0,0)"/>
<path d="" fill="#101011" transform="translate(0,0)"/>
<path d="" fill="#101011" transform="translate(0,0)"/>
<path d="" fill="#101011" transform="translate(0,0)"/>
<path d="" fill="#101011" transform="translate(0,0)"/>
<path d="" fill="#101011" transform="translate(0,0)"/>
<path d="" fill="#101011" transform="translate(0,0)"/>
<path d="" fill="#101011" transform="translate(0,0)"/>
<path d="" fill="#101011" transform="translate(0,0)"/>
<path d="" fill="#1B1920" transform="translate(0,0)"/>
<path d="" fill="#101011" transform="translate(0,0)"/>
<path d="" fill="#101011" transform="translate(0,0)"/>
<path d="" fill="#101011" transform="translate(0,0)"/>
<path d="" fill="#F7614F" transform="translate(0,0)"/>
<path d="" fill="#F75953" transform="translate(0,0)"/>
<path d="" fill="#101011" transform="translate(0,0)"/>
<path d="" fill="#101011" transform="translate(0,0)"/>
<path d="" fill="#101011" transform="translate(0,0)"/>
<path d="" fill="#101011" transform="translate(0,0)"/>
<path d="" fill="#BB466C" transform="translate(0,0)"/>
<path d="" fill="#101011" transform="translate(0,0)"/>
<path d="" fill="#101011" transform="translate(0,0)"/>
<path d="" fill="#101011" transform="translate(0,0)"/>
<path d="" fill="#101011" transform="translate(0,0)"/>
<path d="" fill="#101011" transform="translate(0,0)"/>
<path d="" fill="#101011" transform="translate(0,0)"/>
<path d="" fill="#101011" transform="translate(0,0)"/>
<path d="" fill="#F75F4F" transform="translate(0,0)"/>
<path d="" fill="#F8624F" transform="translate(0,0)"/>
<path d="" fill="#F8674B" transform="translate(0,0)"/>
</svg>
